<?xml version="1.0" standalone="no"?>
<!DOCTYPE svg PUBLIC "-//W3C//DTD SVG 20010904//EN"
 "http://www.w3.org/TR/2001/REC-SVG-20010904/DTD/svg10.dtd">
<svg version="1.0" xmlns="http://www.w3.org/2000/svg"
 width="896.000000pt" height="896.000000pt" viewBox="0 0 896.000000 896.000000"
 preserveAspectRatio="xMidYMid meet">
<metadata>
Created by potrace 1.11, written by Peter Selinger 2001-2013
</metadata>
<g transform="translate(0.000000,896.000000) scale(0.100000,-0.100000)"
fill="#000000" stroke="none">
<path d="M0 4480 l0 -4480 4480 0 4480 0 0 4480 0 4480 -4480 0 -4480 0 0
-4480z m5323 3903 c53 -56 77 -174 41 -204 -27 -22 -44 -67 -44 -116 0 -56 22
-105 144 -326 46 -83 94 -172 107 -197 l24 -45 70 -5 c78 -6 88 -16 61 -69
-21 -40 -20 -67 5 -121 27 -58 26 -89 -4 -137 -33 -52 -47 -105 -47 -179 l0
-60 -86 -75 c-93 -81 -104 -87 -149 -88 -105 -3 -56 -126 83 -209 78 -47 96
-77 72 -116 -82 -127 -110 -196 -110 -266 0 -46 -26 -86 -46 -69 -8 6 -14 17
-14 24 0 7 -27 66 -59 131 -73 146 -86 220 -52 294 11 25 21 57 21 72 0 34
-77 132 -108 136 -31 5 -27 24 7 45 16 9 44 35 61 57 17 22 37 40 44 40 6 0
48 22 93 50 84 52 151 118 184 182 18 35 18 37 -1 60 -17 22 -150 78 -280 117
-74 23 -162 126 -199 234 -10 28 -39 93 -63 142 -25 50 -54 116 -63 147 -18
55 -18 60 -1 120 31 111 165 366 229 436 27 29 48 28 80 -5z m-1315 -1684 c85
-24 209 -73 342 -135 81 -38 102 -53 137 -99 25 -32 65 -67 99 -87 69 -40 82
-57 68 -95 -6 -19 -27 -38 -64 -58 -49 -27 -64 -30 -145 -30 -90 0 -141 13
-178 43 -29 25 -31 5 -3 -42 20 -34 40 -51 88 -75 33 -17 67 -31 74 -31 8 0
23 -18 34 -41 67 -130 113 -528 90 -769 -18 -189 -45 -268 -115 -340 l-44 -45
-163 7 c-450 20 -1019 121 -1591 284 -88 25 -161 43 -163 41 -10 -9 -73 -276
-79 -334 l-7 -61 78 -30 c474 -181 1126 -316 1583 -327 102 -3 186 -7 189 -10
3 -2 -1 -19 -8 -37 -24 -60 -76 -132 -139 -195 -61 -62 -64 -63 -117 -63 -131
0 -466 44 -729 96 -261 51 -736 178 -916 244 -205 75 -395 185 -479 277 -79
85 -111 195 -71 244 l18 23 93 -18 c82 -16 106 -16 219 -5 69 7 127 13 129 14
1 1 -12 35 -28 75 -17 39 -40 106 -51 149 -23 88 -35 280 -22 361 8 53 10 56
58 82 79 43 180 62 299 54 55 -3 115 -8 132 -12 l31 -6 37 109 c64 181 98 245
178 323 213 212 690 490 923 540 52 11 122 4 213 -21z m1480 -706 c5 -10 12
-35 16 -56 5 -26 23 -56 57 -93 27 -30 49 -64 49 -76 0 -11 -20 -42 -44 -67
-41 -44 -86 -138 -86 -179 0 -24 -47 -96 -103 -160 -26 -29 -47 -60 -47 -70 0
-10 -9 -35 -21 -56 -31 -58 -23 -83 42 -136 31 -25 75 -69 98 -97 31 -40 48
-53 68 -53 38 0 170 38 223 65 65 32 95 38 110 20 18 -22 30 -216 20 -324 -5
-53 -18 -121 -29 -151 -19 -55 -93 -220 -132 -295 -12 -22 -36 -70 -55 -106
-19 -36 -39 -92 -45 -125 -14 -72 -5 -186 17 -240 11 -26 18 -71 19 -134 1
-52 5 -107 9 -122 8 -28 8 -28 -42 -28 -42 0 -52 3 -57 20 -14 45 -46 53 -203
51 -165 -2 -214 -11 -247 -47 -26 -28 -80 -32 -125 -9 -52 27 -30 75 33 75 13
0 35 9 49 20 21 16 26 30 31 92 6 81 14 104 70 197 l38 64 -40 41 c-23 23 -41
45 -41 49 0 4 18 7 41 7 77 0 98 26 109 138 10 97 40 140 145 209 154 100 189
135 215 220 25 80 27 189 4 221 -22 31 -59 28 -153 -13 -76 -33 -82 -35 -113
-21 -74 31 -418 343 -418 379 0 11 15 48 34 82 57 101 396 657 423 693 27 36
67 43 81 15z m-2953 -1607 c86 -22 90 -27 104 -108 17 -96 61 -229 107 -320
98 -195 224 -328 424 -448 107 -64 126 -65 31 -1 -264 175 -444 453 -476 729
-7 60 -6 63 11 54 32 -17 128 -124 168 -187 108 -168 298 -307 479 -350 82
-19 237 -19 312 1 33 8 129 46 213 84 226 103 430 170 518 170 45 0 64 -44 63
-147 -1 -89 -10 -129 -29 -125 -22 5 -80 -19 -90 -38 -28 -52 8 -120 62 -120
29 0 32 -8 22 -46 -5 -18 -18 -23 -76 -33 -73 -12 -135 -38 -159 -67 -13 -16
-12 -17 16 -11 17 4 64 10 105 13 l75 7 23 -49 c32 -71 42 -137 32 -224 -5
-41 -9 -79 -10 -84 0 -12 -264 0 -418 19 -169 21 -345 58 -485 102 -64 20
-119 34 -122 31 -3 -2 -8 -18 -11 -35 l-6 -30 84 -6 c87 -7 207 -34 272 -61
l37 -16 -35 -46 c-20 -26 -36 -51 -36 -55 0 -5 17 -9 38 -9 102 0 328 -53 455
-106 58 -25 169 -87 210 -119 18 -13 18 -15 1 -44 -10 -17 -21 -31 -24 -31 -3
0 -28 16 -55 36 -154 110 -397 185 -654 200 -61 4 -111 9 -111 11 0 16 36 83
56 104 14 15 21 29 16 33 -21 12 -152 26 -259 26 -132 0 -127 -6 -89 114 l24
75 -102 50 c-251 123 -463 305 -594 509 l-47 74 -85 -6 c-497 -38 -1000 -132
-1445 -272 -83 -25 -158 -49 -168 -51 -12 -4 -17 0 -17 14 0 16 24 27 148 66
436 138 907 231 1367 272 92 8 170 16 172 19 2 2 -8 28 -23 59 l-27 55 -126 7
c-143 9 -563 -8 -781 -30 -209 -22 -460 -60 -655 -100 -110 -22 -173 -31 -179
-25 -20 20 12 31 180 65 440 90 1063 147 1413 129 129 -7 134 -6 127 12 -18
47 -56 209 -56 240 0 39 8 41 85 20z m1345 -1523 c175 -34 399 -132 494 -215
l48 -43 -72 -93 c-60 -78 -76 -93 -94 -88 -11 3 -187 49 -391 102 -203 53
-371 97 -373 99 -2 1 5 19 14 39 17 35 17 37 -2 51 -18 13 -18 15 -1 45 9 18
17 42 17 54 0 24 42 54 94 67 40 10 171 1 266 -18z m-435 -208 c-2 -47 -23
-80 -56 -90 -23 -8 -24 -27 -2 -87 17 -48 13 -72 -9 -50 -15 15 -65 15 -74 0
-4 -7 8 -25 32 -45 34 -28 36 -33 17 -33 -31 0 -37 -17 -11 -31 21 -11 21 -12
3 -25 -10 -8 -29 -11 -42 -8 -34 9 -28 -8 17 -49 40 -35 48 -59 31 -86 -8 -12
-23 -10 -93 12 -46 15 -104 40 -127 57 -51 37 -50 48 10 152 60 102 153 212
231 273 39 30 71 55 72 55 2 0 2 -20 1 -45z m172 -111 c76 -20 142 -39 146
-44 5 -4 2 -18 -6 -31 -9 -13 -20 -42 -26 -65 -7 -25 -22 -48 -41 -62 -35 -27
-36 -35 -10 -84 l19 -37 -47 14 c-70 22 -164 20 -193 -4 -29 -24 -21 -35 15
-21 36 13 103 12 146 -4 l35 -13 -60 -7 c-33 -4 -73 -13 -90 -21 -27 -11 -28
-13 -11 -21 11 -4 51 -2 90 5 39 7 87 15 106 17 33 5 32 3 -13 -15 -27 -11
-55 -25 -63 -31 -18 -16 -18 -58 1 -90 8 -14 14 -39 15 -57 0 -27 -7 -37 -45
-63 -25 -17 -50 -28 -55 -25 -16 10 -78 126 -106 200 -32 83 -35 171 -10 284
18 83 56 211 62 211 2 0 66 -16 141 -36z m831 -296 c-25 -15 -259 -8 -353 11
-49 10 -92 17 -93 15 -8 -6 102 -33 200 -49 57 -9 110 -18 118 -19 8 -2 -96
-4 -232 -5 -228 -1 -248 0 -248 16 0 27 73 243 83 243 4 0 88 -20 187 -45 99
-25 185 -45 192 -45 8 0 45 42 83 93 l70 92 3 -149 c2 -113 -1 -151 -10 -158z
m-493 -184 c33 -7 98 -14 144 -14 l85 0 -26 -27 c-39 -42 -78 -109 -99 -171
-32 -92 -31 -93 56 -90 65 2 75 4 75 20 0 22 36 24 84 4 l34 -14 7 71 c7 78
29 176 42 187 4 4 29 10 56 13 l47 5 0 -491 0 -490 -172 6 c-183 7 -383 27
-533 53 -112 19 -295 62 -314 73 -12 8 -6 57 34 305 l49 296 123 95 c85 66
123 89 123 77 -1 -9 -9 -57 -19 -106 -13 -60 -15 -84 -7 -75 32 36 136 209
132 221 -2 7 -7 28 -10 47 -5 29 -4 32 12 26 9 -3 44 -13 77 -21z m-1023 -146
c3 -32 4 -33 56 -36 l52 -3 0 35 c0 40 -1 40 55 25 22 -6 92 -15 155 -20 180
-13 204 -19 208 -51 3 -23 -64 -437 -99 -615 l-10 -51 -142 -57 c-78 -32 -148
-59 -154 -62 -9 -4 -13 6 -13 32 0 32 -3 36 -17 29 -10 -4 -35 -7 -55 -6 -37
1 -38 1 -38 -33 0 -40 3 -40 -110 -21 l-75 12 -5 34 c-4 29 -10 36 -32 38
l-28 3 0 350 0 349 25 0 c22 0 25 4 25 34 0 19 6 37 13 39 6 3 51 6 99 6 l87
1 3 -32z"/>
<path d="M3875 6360 c126 -215 120 -393 -20 -547 -25 -29 -62 -62 -81 -74 -65
-40 -26 -32 69 14 226 110 275 269 147 480 -18 31 -58 82 -87 114 l-54 58 26
-45z"/>
<path d="M5266 3709 c-42 -50 -33 -63 47 -67 54 -2 68 -6 63 -17 -4 -12 -1
-12 19 -3 34 15 32 24 -17 54 -24 15 -53 35 -64 46 -21 19 -22 19 -48 -13z"/>
</g>
</svg>
